PathFileType	4	(X/Y/Z)	27_2_27_p1_0-442.trc
DataRate	CameraRate	NumFrames	NumMarkers	Units	OrigDataRate	OrigDataStartFrame	OrigNumFrames
60.0	60.0	5	27	m	60.0	221	443
Frame#	Time	RHip			RKnee			RAnkle			RBigToe			RSmallToe			RHeel			LHip			LKnee			LAnkle			LBigToe			LSmallToe			LHeel			Neck			Head			Nose			RShoulder			RElbow			RWrist			RThumb			RIndex			RPinky			LShoulder			LElbow			LWrist			LThumb			LIndex			LPinky			
		X1	Y1	Z1	X2	Y2	Z2	X3	Y3	Z3	X4	Y4	Z4	X5	Y5	Z5	X6	Y6	Z6	X7	Y7	Z7	X8	Y8	Z8	X9	Y9	Z9	X10	Y10	Z10	X11	Y11	Z11	X12	Y12	Z12	X13	Y13	Z13	X14	Y14	Z14	X15	Y15	Z15	X16	Y16	Z16	X17	Y17	Z17	X18	Y18	Z18	X19	Y19	Z19	X20	Y20	Z20	X21	Y21	Z21	X22	Y22	Z22	X23	Y23	Z23	X24	Y24	Z24	X25	Y25	Z25	X26	Y26	Z26	X27	Y27	Z27	
221	3.683333333333333	0.10988657427915693	0.6235085624434846	1.0285049811097595	0.11385788978732628	0.6429983352083163	1.4326515973596072	0.1504086954386165	0.8061031439498652	1.844041259597329	0.12684334144087495	0.5954565199785724	1.8378141270243045	0.18136554259658155	0.6010636607760074	1.8282553107892972	0.15343730963773974	0.8974257625188125	1.910288492040611	-0.07008321971932763	0.6821675106523566	1.045923762747125	-0.049274271733096675	0.7237405212778177	1.4523985493132274	-0.03484734062122838	0.7981524696729594	1.841773257739114	-0.04139822894508501	0.5776047008825673	1.8130185439687931	-0.08348350953965208	0.6498209143084416	1.8343141354967047	-0.0021727280255344804	0.8474592795176512	1.8835034947567566	0.02992962297892374	0.5803082773740933	0.5029168835013609	0.019027837832984475	0.5221847931041043	0.2470646825126395	-0.008510643492674745	0.43535901252279263	0.39565253340547446	0.1579854328867307	0.5524841234451932	0.5744360834257137	0.1327769096302867	0.44420164129384393	0.7757656143196731	0.09160957545095798	0.36654031822597977	0.6695048966278355	0.022796147536124956	0.34583201747793874	0.5820512135705266	0.022094546521809293	0.30191556624265187	0.5729745082658091	0.03405548242187632	0.2771611583486473	0.6352989223155644	-0.1023705393740714	0.6529098502952086	0.5760968210301329	-0.15489539434417443	0.5599917214036874	0.7981377063998822	-0.12469907770463547	0.44025754141985257	0.6923421638005197	-0.08894502793460515	0.3647386436280254	0.5950644340406537	-0.10060198143047852	0.3205918643637739	0.5873325319008157	-0.0980802150565428	0.3324808177585189	0.6586728285917008
222	3.7	0.10569995861470909	0.622304889938165	1.028316759795528	0.11385971719968008	0.6428143433547957	1.432498416019875	0.15043979704159266	0.8058859802028376	1.8438636074931107	0.12687519037721667	0.595273763897759	1.8378530881393393	0.1769884711025885	0.6011726869241639	1.82831355362884	0.15357443122613665	0.897121227531163	1.9096847419188943	-0.07416836497293257	0.6816826066835231	1.0459596385551277	-0.04930658057894506	0.7236614388937659	1.4523908410624962	-0.03141444315594975	0.781924380497076	1.8338907771821282	-0.04137718700251332	0.5774017377082109	1.8129384343858723	-0.08352504362174698	0.6493360011658761	1.834007353896502	-0.0027229954101227393	0.8455918838435396	1.8827147527903358	0.0255238574786241	0.5676797873841275	0.5023350644967987	0.022955050486158292	0.5230566307387475	0.24676446274423586	-0.008591255433406468	0.4355835597463957	0.39565650162460586	0.15798911569564475	0.5523122065711271	0.574348228537287	0.13731955309716282	0.4565777490756109	0.7776204083791214	0.10217551367967936	0.35451673049885446	0.6710033569923686	0.027723412624560184	0.35520682878306425	0.5823097018373737	0.03092380572758917	0.32161240397674	0.5772305779426994	0.04662593558296912	0.2980811402650557	0.6396445070801714	-0.10660592547246407	0.64003834852699	0.5749038702119621	-0.15499036646976072	0.5603219813991308	0.7975151623455166	-0.13650443077800573	0.4268808168889988	0.6876726201003688	-0.10023514177633872	0.34244527153725673	0.5933745231055251	-0.10879100185434137	0.3004601239970472	0.5856224593006979	-0.10925493811828961	0.33036225583373025	0.658349376262343
223	3.716666666666667	0.11065585125017546	0.62493488270505	1.032673476479908	0.11393734111102434	0.643001181933035	1.432535450389653	0.1504229009115876	0.806035237023332	1.8439284299202507	0.12925731419104228	0.5801911121138925	1.8295627940412087	0.1769760819300208	0.6010548889130749	1.8281763762725396	0.15353990699234663	0.8970920163542858	1.909615089974195	-0.07841566498097334	0.6685499989544931	1.0429223003695547	-0.04931287229572737	0.7236872820872953	1.4523503987893307	-0.03131676170326217	0.7821567924020406	1.8339486545167585	-0.041272191452259875	0.5776305675097632	1.8130522993126148	-0.08229044967047972	0.6513657240432007	1.8400356472048331	-0.0022115416595425517	0.8471427875695007	1.8833908632147802	0.025051709007462918	0.5680267418961871	0.5024852815320995	0.02291224070620156	0.5237269968640613	0.2437725748276011	-0.00856883679722091	0.4358670843084064	0.39246542836928094	0.153301816978055	0.5410392798296486	0.5734656992893873	0.13420895001629318	0.4686743835737289	0.7764916177178874	0.10221182412654108	0.36317099898200667	0.6689799433074799	0.027778173833305032	0.3552044925479827	0.5823009634523273	0.0351975663693902	0.3220261046444268	0.5739676068723719	0.04168330914296403	0.321149682807281	0.6401981064970464	-0.10647446229718117	0.6403749031355058	0.5750203809595851	-0.1551896223714752	0.5608132263751324	0.7975053172800338	-0.14433059271334484	0.4383832584953634	0.6930599131375421	-0.10934178485839406	0.4005235857251143	0.6033287491973063	-0.11954923895987091	0.3206891425006151	0.5888227349688329	-0.1198556391254459	0.32489288291856194	0.6586927378863825
224	3.7333333333333334	0.10978582870844482	0.6236953566496072	1.0285753692915816	0.11376274763812048	0.6430779228959191	1.4327263784496995	0.15041744537945564	0.8061524087569727	1.8440061183840268	0.1291714927219634	0.5798038972584859	1.829488930555437	0.18153595098449837	0.6008813812635267	1.8280875992131547	0.1535091278962376	0.897196081873274	1.9097031538232236	-0.0784261969549412	0.668601277239271	1.042975201192854	-0.04934424152743643	0.7235931653494108	1.4523523656132906	-0.03136841422723567	0.7822265869787066	1.8340383139827305	-0.041333650324331866	0.5777827981927454	1.8133267214212239	-0.08234178078063355	0.6515452058524671	1.8402646111617238	-0.0022028979938324964	0.8471733390560271	1.883391744608342	0.024666685381669513	0.5680208206450823	0.5055665590603082	0.023126751775311045	0.5231833846833417	0.24364552440983292	-0.00867585816427718	0.4355796499284061	0.39565791255930544	0.1531522331844045	0.541106303806446	0.5766529025847987	0.13689358651134342	0.4563504939316979	0.7747048712292028	0.10892645912803404	0.352419072211645	0.6675481373415527	0.03333296809056857	0.3659925107879517	0.5824531870251355	0.040260579969964294	0.33317962111561844	0.5745527747520716	0.05010484100613142	0.3120308222954692	0.6408585234460834	-0.10633130531809169	0.641692659294378	0.5796946708080004	-0.1637051821303187	0.573962977648839	0.8026635390739322	-0.15222422979336866	0.450610175169272	0.6917266975595051	-0.11297109738030613	0.4140822633749466	0.6012012945220674	-0.12902987318508113	0.3549503920859233	0.5922102253288497	-0.11790877456058776	0.3393034792240061	0.6632242971256676
225	3.75	0.11054139731975215	0.6251956647338253	1.032716806757844	0.1143927888458369	0.6425214434528725	1.428507460664635	0.15041237620085243	0.8059747617917966	1.8438282974273073	0.12923327952006122	0.5796338884385208	1.8292934183434477	0.18160611901964638	0.6006468288463641	1.8279426468052242	0.15354389435782775	0.8969642930198026	1.909294113159351	-0.07339947268716836	0.683636565662332	1.050698683017797	-0.049389686795070185	0.7237117819936626	1.4523591146770307	-0.0314610835317131	0.7820170469042669	1.834037946693357	-0.04127841985199687	0.5779277819728394	1.8134183445215468	-0.08230631310131585	0.6516504329049465	1.8402947575045339	-0.0021273764625575754	0.8473471552904785	1.883362142670205	0.02473659779000371	0.5681625612128588	0.5025624183835917	0.023923934247559103	0.5246706112421433	0.25047589502612694	-0.008596581738893461	0.43577925120824285	0.392401136848948	0.15307695328226614	0.5410479275811743	0.5765286339804808	0.13868043580031378	0.43196005674995686	0.7667892928445691	0.11372057292088665	0.35475506240684995	0.6674815656747203	0.04002286176594254	0.3552975422139902	0.5777785495547698	0.04384032431623601	0.3424613127093899	0.5754993763083761	0.049963048120864384	0.30974573782910236	0.6341570285768006	-0.10251693157057783	0.6530159474645469	0.5766168044292155	-0.16686559401457415	0.5601447971731085	0.7984537035067579	-0.16311334027740343	0.46250112696762957	0.6972677444556539	-0.11555249637214775	0.42756458326035507	0.5993769998657537	-0.13313909663108353	0.3679522546210501	0.5940555435318695	-0.1234185844455045	0.3154771022881221	0.6577305300045004
